# xmcd CD database file
#
# Track frame offsets:
#	150
#	22102
#	39725
#	56612
#	79152
#	98115
#	115342
#	141257
#	162902
#	187812
#	203493
#	210439
#
# Disc length: 3074 seconds
#
# Revision: 0
# Processed by: cddbd v1.5.2PL0 Copyright (c) Steve Scherf et al.
# Submitted via: CDex 1.70beta2
#
DISCID=9f0c000c
DTITLE=Kyle Eastwood - Now
DYEAR=2006
DGENRE=Jazz
TTITLE0=Now
TTITLE1=I Can't Remember
TTITLE2=Leave It
TTITLE3=September Nights
TTITLE4=Every Little Thing She Does Dove Is Magic
TTITLE5=Let's Play
TTITLE6=Nasty Girl
TTITLE7=Eastern Promise
TTITLE8=Song For Ruth
TTITLE9=How Y'all Doin'
TTITLE10=Ladies And Gentleman
TTITLE11=As It Should Be
EXTD=YEAR: 2006
EXTT0=
EXTT1=
EXTT2=
EXTT3=
EXTT4=
EXTT5=
EXTT6=
EXTT7=
EXTT8=
EXTT9=
EXTT10=
EXTT11=
PLAYORDER=
